<?xml version="1.0" standalone="no"?><!DOCTYPE svg PUBLIC "-//W3C//DTD SVG 1.1//EN" "http://www.w3.org/Graphics/SVG/1.1/DTD/svg11.dtd"><svg t="1714209867748" class="icon" viewBox="0 0 1024 1024" version="1.1" xmlns="http://www.w3.org/2000/svg" p-id="8397" xmlns:xlink="http://www.w3.org/1999/xlink" width="20" height="20"><path d="M884.736 207.36c-53.248-55.808-123.392-87.04-197.632-87.04-66.56 0-128 23.552-178.176 68.096-50.176-44.032-113.664-68.096-177.664-68.096C177.152 119.808 51.2 251.904 51.2 413.696c0 27.136 3.584 54.272 10.752 78.848 1.024 5.12 2.56 11.776 5.12 17.92h-35.84c-14.848 0-26.112 11.776-26.112 26.112 0 14.848 11.776 26.112 26.112 26.112h58.88c4.608 7.68 7.168 12.8 8.192 14.336 8.704 14.848 17.92 29.696 26.624 41.984l2.56 3.584c81.92 125.44 267.776 270.336 323.072 311.296l1.024 1.024c16.896 12.8 37.376 19.456 58.368 19.456s41.472-6.656 58.368-19.968c2.048-1.536 229.888-171.52 324.096-311.808l2.048-3.072c30.72-47.616 73.216-112.64 73.216-206.336-1.024-77.824-30.208-151.04-82.944-205.824zM268.8 563.712l6.656-4.608c9.728-6.144 13.824-14.848 34.816-64 10.752-25.088 25.6-59.904 38.912-84.48 5.12 30.208 10.752 74.24 14.848 105.472 14.848 125.44 20.992 152.576 45.568 160.768 0.512 0 1.536 0.512 2.048 0.512 2.048 0.512 4.608 1.024 6.144 1.024 8.192 0 16.384-4.096 23.04-10.24 9.728-10.24 16.384-27.648 28.16-56.832l2.56-5.12c10.752-28.16 19.968-48.64 26.624-61.44 2.56 6.144 4.608 13.312 6.656 21.504 11.776 48.64 32.768 75.264 61.44 76.8 26.624 2.048 52.224-17.408 77.824-59.392 7.168-12.288 14.848-25.6 19.968-36.352h130.048c14.848 0 26.112-11.776 26.112-26.112 0-14.848-11.776-26.112-26.112-26.112H629.76l-6.656 15.872c-17.408 42.496-42.496 75.264-52.736 79.872-2.56-3.072-8.704-11.776-14.848-36.864-8.704-34.816-21.504-70.656-53.248-72.704-36.352-2.56-55.808 44.544-77.824 99.328-2.56-15.36-4.608-32.768-6.144-47.616v-1.536c-1.024-7.168-2.048-14.336-2.56-20.48-4.096-35.328-8.704-75.264-14.848-105.472-5.12-35.328-12.8-69.632-41.984-69.632H358.4c-30.208 0-50.176 35.328-95.232 140.288l-4.096 9.216c-4.608 9.728-8.704 20.48-12.288 27.648h-117.76c-4.096-9.216-8.192-20.48-10.24-31.232l-0.512-1.024c-5.632-20.992-8.192-43.008-8.192-64.512 0-129.536 98.816-235.52 220.672-235.52 58.88 0 114.688 25.088 156.16 70.144l22.016 23.552 22.016-23.552c40.96-45.056 96.256-70.144 156.16-70.144 58.88 0 114.176 24.576 155.648 68.608 42.496 45.056 65.536 104.448 65.536 166.4 0 75.776-35.328 130.56-64.512 174.592l-1.536 2.048c-35.328 52.736-98.816 119.808-183.296 193.536-39.424 34.816-84.48 71.168-125.44 102.4-1.536 1.024-2.56 2.048-2.56 2.048-6.144 5.12-14.336 7.68-23.04 7.68h-0.512c-7.168 0-15.36-3.072-24.064-8.192l-1.536-1.024c-25.088-16.896-228.864-174.592-308.736-296.448l-2.56-3.584c-5.12-7.68-10.24-15.36-15.36-24.576h112.64v-0.512h1.024z" fill="#f81d33" p-id="8398"></path></svg>